<?xml version="1.0" standalone="no"?><!DOCTYPE svg PUBLIC "-//W3C//DTD SVG 1.1//EN" "http://www.w3.org/Graphics/SVG/1.1/DTD/svg11.dtd"><svg t="1727312657134" class="icon" viewBox="0 0 1536 1024" version="1.1" xmlns="http://www.w3.org/2000/svg" p-id="43047" xmlns:xlink="http://www.w3.org/1999/xlink" width="300" height="200"><path d="M524.288 608.256h200.704v57.344h-120.832v45.056h102.4v53.248h-102.4v108.544h-81.92l2.048-264.192zM772.096 608.256h73.728v264.192h-73.728V608.256zM882.688 778.24c0-26.624 10.24-53.248 28.672-71.68 22.528-20.48 51.2-30.72 79.872-28.672 32.768-2.048 63.488 10.24 86.016 32.768 32.768 40.96 30.72 100.352-6.144 139.264-22.528 20.48-51.2 30.72-81.92 28.672-26.624 2.048-53.248-6.144-73.728-22.528-20.48-20.48-34.816-49.152-32.768-77.824z m73.728 0c-2.048 14.336 2.048 26.624 10.24 36.864 12.288 14.336 32.768 16.384 47.104 4.096l4.096-4.096c8.192-12.288 12.288-24.576 10.24-38.912 2.048-12.288-2.048-26.624-10.24-36.864-6.144-8.192-16.384-12.288-24.576-12.288-10.24 0-20.48 4.096-26.624 12.288-8.192 12.288-12.288 24.576-10.24 38.912zM1110.016 681.984h71.68l30.72 120.832 38.912-120.832h65.536l40.96 120.832 30.72-120.832h69.632l-71.68 190.464h-65.536L1284.096 757.76l-38.912 114.688h-65.536l-69.632-190.464z" fill="#0099CC" p-id="43048"></path><path d="M440.32 770.048c-147.456-45.056-231.424-200.704-186.368-348.16s200.704-231.424 348.16-186.368c129.024 38.912 210.944 163.84 196.608 299.008h79.872c0-10.24 2.048-20.48 2.048-30.72C880.64 307.2 720.896 145.408 522.24 145.408S163.84 307.2 163.84 503.808c0 165.888 114.688 311.296 276.48 350.208v-83.968z" fill="#006699" p-id="43049"></path></svg>