<?xml version="1.0" standalone="no"?><!DOCTYPE svg PUBLIC "-//W3C//DTD SVG 1.1//EN" "http://www.w3.org/Graphics/SVG/1.1/DTD/svg11.dtd"><svg t="1729674193164" class="icon" viewBox="0 0 1078 1024" version="1.1" xmlns="http://www.w3.org/2000/svg" p-id="828" xmlns:xlink="http://www.w3.org/1999/xlink" width="269.5" height="256"><path d="M65.134681 619.814619a19.906687 19.906687 0 0 1-13.855054-5.573872 20.225194 20.225194 0 0 1-4.459098-20.702955l147.150233-390.330327a19.428927 19.428927 0 0 1 12.103266-11.625505l444.954277-147.468741a19.11042 19.11042 0 0 1 20.543701 5.414619 19.58818 19.58818 0 0 1 3.18507 21.180716l-175.178849 380.456609a19.58818 19.58818 0 0 1-10.829238 10.032971L71.982582 618.699844a20.543701 20.543701 0 0 1-6.847901 1.114775z m161.960809-394.311664L98.418663 567.101711l368.67185-139.506066L621.088647 95.5521z" p-id="829"></path><path d="M755.817107 675.871851a19.747434 19.747434 0 0 1-11.944012-4.140591l-274.393779-213.399689A19.428927 19.428927 0 1 1 493.685848 427.754899l274.075272 213.240435a19.428927 19.428927 0 0 1 3.344323 27.869363 19.269673 19.269673 0 0 1-15.288336 7.007154z" p-id="830"></path><path d="M235.695179 980.683048a19.58818 19.58818 0 0 1-13.218041-5.096112 19.428927 19.428927 0 0 1-4.459098-22.77325L463.74619 434.762053a19.58818 19.58818 0 0 1 15.92535-11.147745L969.535303 398.133748 643.384137 76.44168a19.428927 19.428927 0 1 1 27.391602-27.710109l355.93157 351.472473a18.632659 18.632659 0 0 1 5.733126 14.014307 19.58818 19.58818 0 0 1-6.051633 14.014308 14.810575 14.810575 0 0 1-2.229549 2.229549l-254.805598 238.880249a18.791913 18.791913 0 0 1-3.503577 2.70731L245.409642 977.975739a19.428927 19.428927 0 0 1-9.714463 2.707309zM493.685848 461.835148L280.286159 912.522551l463.746189-271.845724L959.343079 437.947123z" p-id="831"></path><path d="M235.535925 980.683048a19.428927 19.428927 0 0 1 0-38.857854l652.939347-0.955521 101.603733-525.536547a19.428927 19.428927 0 0 1 38.220839 7.484914L923.670295 963.961431a19.428927 19.428927 0 0 1-19.110419 15.92535l-668.864697 0.955521z" p-id="832"></path><path d="M900.737792 985.619907a19.58818 19.58818 0 0 1-17.677139-11.147745l-144.920684-309.90731a19.428927 19.428927 0 0 1 35.195023-15.92535l144.920685 309.748056a19.58818 19.58818 0 0 1-9.395957 25.958321 21.339969 21.339969 0 0 1-8.121928 1.274028zM235.695179 980.683048a19.58818 19.58818 0 0 1-17.677139-11.147745L47.77605 608.666874a19.428927 19.428927 0 0 1 35.195023-15.92535L253.213064 952.972939a19.428927 19.428927 0 0 1-9.236703 25.799067 19.58818 19.58818 0 0 1-8.281182 1.911042zM482.538103 459.287092a18.951166 18.951166 0 0 1-12.581027-4.618352L197.315086 224.865941A19.428927 19.428927 0 0 1 222.954899 195.085537l272.16423 229.962052a19.58818 19.58818 0 0 1 2.388803 27.391602 20.065941 20.065941 0 0 1-14.969829 6.847901z" p-id="833"></path><path d="M66.88647 599.589425m-66.88647 0a66.88647 66.88647 0 1 0 133.772939 0 66.88647 66.88647 0 1 0-133.772939 0Z" fill="#FFB200" p-id="834"></path><path d="M653.735614 66.88647m-66.886469 0a66.88647 66.88647 0 1 0 133.772939 0 66.88647 66.88647 0 1 0-133.772939 0Z" fill="#FFB200" p-id="835"></path><path d="M897.871229 953.132193m-66.88647 0a66.88647 66.88647 0 1 0 133.772939 0 66.88647 66.88647 0 1 0-133.772939 0Z" fill="#FFB200" p-id="836"></path><path d="M209.896112 209.896112m-71.345568 0a71.345568 71.345568 0 1 0 142.691136 0 71.345568 71.345568 0 1 0-142.691136 0Z" fill="#FFDCA9" p-id="837"></path><path d="M501.170762 458.331571m-66.88647 0a66.88647 66.88647 0 1 0 133.77294 0 66.88647 66.88647 0 1 0-133.77294 0Z" fill="#FFB200" p-id="838"></path><path d="M1007.59689 416.766407m-71.345568 0a71.345568 71.345568 0 1 0 142.691135 0 71.345568 71.345568 0 1 0-142.691135 0Z" fill="#FFDCA9" p-id="839"></path><path d="M242.065319 952.654432m-71.345568 0a71.345568 71.345568 0 1 0 142.691135 0 71.345568 71.345568 0 1 0-142.691135 0Z" fill="#FFDCA9" p-id="840"></path><path d="M749.287714 652.780093m-71.345568 0a71.345568 71.345568 0 1 0 142.691135 0 71.345568 71.345568 0 1 0-142.691135 0Z" fill="#FFDCA9" p-id="841"></path></svg>